<?xml version="1.0" encoding="UTF-8" standalone="no"?><!-- Generator: Gravit.io --><svg xmlns="http://www.w3.org/2000/svg" xmlns:xlink="http://www.w3.org/1999/xlink" style="isolation:isolate" viewBox="0 0 1920 1280" width="1920pt" height="1280pt"><defs><clipPath id="_clipPath_SM6bz2D4PYyyyjwKSiGsT4cr5iE7nB4L"><rect width="1920" height="1280"/></clipPath></defs><g clip-path="url(#_clipPath_SM6bz2D4PYyyyjwKSiGsT4cr5iE7nB4L)"><rect width="1920" height="1280" style="fill:rgb(0,0,0)" fill-opacity="0"/><path d=" M 457.831 746.04 C 445.48 750.524 433.831 746.863 361.828 779.12 C 289.826 811.376 241.529 880.937 219.451 901.2 C 197.373 921.463 190.236 930.843 180.399 921.678 C 170.562 912.513 168.047 902.524 180.399 871.27 C 192.751 840.016 187.721 813.631 203.179 727.925 C 218.638 642.218 245.123 568.553 260.944 553.862 C 314.098 504.505 257.147 552.812 231.655 657.039 C 224.037 688.184 203.993 764.942 194.23 849.217 C 189.369 874.302 182.947 901.98 186.094 894.899 C 214.154 831.76 228.659 773.105 269.893 711.385 C 311.127 649.664 305.321 655.178 377.287 639.712 Q 449.252 624.246 521.291 608.995 Q 509.494 620.057 470.849 627.11 C 432.204 634.163 333.279 653.889 313.013 666.491 C 292.748 679.092 186.094 894.111 194.23 909.076 C 203.993 911.045 251.588 837.797 313.013 794.084 C 373.168 751.276 492.544 733.438 457.831 746.04 L 457.831 746.04 L 457.831 746.04 L 457.831 746.04 L 457.831 746.04 L 457.831 746.04 L 457.831 746.04 Z  M 472.476 889.386 C 481.593 908.018 491.926 953.368 500.138 944.519 C 510.918 932.901 513.969 924.631 514.782 915.377 C 515.521 906.978 515.623 900.812 515.314 895.9 C 513.155 882.1 512.117 880.641 509.901 872.058 C 507.684 863.475 489.917 839.007 496.07 849.217 C 501.765 858.669 512.748 878.753 512.342 898.837 C 512.098 910.86 507.257 926.403 505.833 928.766 C 504.409 931.129 493.311 911.921 479.798 883.872 C 468.866 861.179 429.051 796.201 417.966 786.208 C 401.145 771.044 395.999 766.321 407.389 778.332 C 418.789 790.354 438.814 819.091 453.764 849.217 C 470.434 882.811 463.323 870.68 472.476 889.386 L 472.476 889.386 L 472.476 889.386 L 472.476 889.386 L 472.476 889.386 L 472.476 889.386 Z  M 245.486 926.403 Q 253.622 924.828 265.825 909.076 C 278.029 893.324 284.538 883.872 279.656 882.297 C 274.775 880.722 258.503 884.266 260.944 889.386 C 263.385 894.505 259.317 905.532 251.994 914.589 Q 244.672 923.647 245.486 926.403 L 245.486 926.403 L 245.486 926.403 L 245.486 926.403 L 245.486 926.403 Z  M 435.051 942.943 C 429.356 939.005 426.915 935.855 423.661 926.403 C 420.407 916.952 426.915 923.647 430.983 931.129 C 435.051 938.611 440.746 946.881 435.051 942.943 L 435.051 942.943 L 435.051 942.943 L 435.051 942.943 Z  M 326.031 828.739 C 324.404 825.983 313.029 823.678 302.437 826.376 C 286.979 830.314 286.165 834.646 280.47 840.553 C 274.775 846.461 283.691 854.671 299.182 849.217 C 326.031 839.766 327.658 831.496 326.031 828.739 L 326.031 828.739 L 326.031 828.739 Z  M 370.778 839.766 C 376.066 848.43 379.117 846.798 387.863 849.217 C 393.558 850.792 409.016 850.005 409.83 846.067 C 411.929 835.908 408.203 831.102 397.626 827.952 C 385.801 824.429 367.93 822.438 367.524 827.952 C 367.117 833.465 365.49 831.102 370.778 839.766 L 370.778 839.766 Z  M 323.59 11.195 Q 328.675 8.045 347.184 6.47 C 365.693 4.894 375.108 16.989 363.456 39.549 C 351.523 62.653 347.455 78.142 347.184 136.426 C 346.976 181.124 383.388 368.182 413.084 445.959 C 442.78 523.735 487.731 555.634 515.596 575.127 C 543.461 594.621 546.716 600.922 537.563 620.809 C 528.41 640.696 515.189 672.201 515.596 711.385 C 516.003 750.568 518.647 778.332 520.478 789.359 Q 522.308 800.385 526.986 816.137 Q 509.698 813.971 515.596 831.89 C 521.495 849.808 524.749 906.91 515.596 927.979 Q 506.443 949.047 492.002 956.333 Q 475.324 909.076 458.645 910.651 C 441.967 912.226 455.594 949.047 435.051 949.244 C 419.134 949.397 417.762 899.231 401.694 895.686 C 385.626 892.142 403.236 915.261 348.811 910.651 Q 299.996 906.516 283.724 889.386 Q 280.267 899.231 265.012 916.952 C 250.766 933.501 244.128 941.861 234.909 927.979 C 231.248 922.465 242.638 906.713 243.859 904.35 C 251.223 890.092 221.411 919.673 202.366 932.704 C 183.287 945.759 188.128 943.838 167.382 932.704 C 140.362 918.203 167.382 886.629 173.077 868.908 C 178.772 851.186 181.924 751.455 202.366 656.252 C 222.944 560.412 211.112 578.869 234.909 518.419 Q 258.707 457.97 251.994 453.047 Q 250.164 438.87 251.994 405.003 C 253.825 371.135 282.911 302.219 297.555 201.01 C 310.694 110.211 319.113 78.546 314.641 61.603 C 308.403 37.974 284.538 -2.982 323.59 11.195 L 323.59 11.195 L 323.59 11.195 L 323.59 11.195 L 323.59 11.195 L 323.59 11.195 L 323.59 11.195 Z  M 309.759 15.133 C 325.624 18.087 325.134 19.716 328.471 17.496 C 341.794 8.636 335.082 27.834 331.726 55.302 C 322.924 127.339 302.437 328.604 309.759 360.896 C 317.081 393.188 341.896 445.565 317.895 453.047 C 293.894 460.529 267.453 477.463 264.198 453.047 C 260.944 428.631 271.114 379.405 283.724 337.268 C 296.335 295.13 321.048 81.096 321.963 72.629 C 322.878 64.162 310.979 32.362 309.759 25.372 C 308.539 18.382 302.269 13.739 309.759 15.133 Z " fill-rule="evenodd" fill="rgb(25,24,28)"/></g></svg>