<?xml version="1.0" encoding="UTF-8" standalone="no"?><!-- Generator: Gravit.io --><svg xmlns="http://www.w3.org/2000/svg" xmlns:xlink="http://www.w3.org/1999/xlink" style="isolation:isolate" viewBox="0 0 1920 1280" width="1920pt" height="1280pt"><defs><clipPath id="_clipPath_RuQa2ePQSRRcUFY21mlyq1wuBLcymbLi"><rect width="1920" height="1280"/></clipPath></defs><g clip-path="url(#_clipPath_RuQa2ePQSRRcUFY21mlyq1wuBLcymbLi)"><rect width="1920" height="1280" style="fill:rgb(0,0,0)" fill-opacity="0"/><path d=" M 112.382 859.999 C 100.951 848.568 91.045 828.755 94.855 844.758 C 98.665 860.761 120.765 886.671 131.434 895.815 C 142.102 904.96 155.819 919.439 154.295 886.671 C 152.771 853.903 134.482 771.601 144.388 706.826 C 154.295 642.052 162.678 595.566 171.06 584.898 C 179.443 574.229 197.732 592.518 232.787 604.711 C 267.841 616.904 280.796 609.283 293.751 624.524 C 306.706 639.766 322.964 656.047 331.282 650.053 C 344.237 640.718 328.992 650.17 317.565 620.333 C 296.99 566.608 321.947 608.521 283.844 590.232 C 245.742 571.943 209.163 568.133 200.018 558.988 C 190.874 549.843 177.157 542.985 160.392 546.795 C 143.626 550.605 136.768 562.036 136.768 571.181 C 136.768 580.325 132.161 762.83 132.958 789.128 C 133.72 814.276 150.485 898.102 140.578 888.195 C 127.269 874.886 123.813 871.43 112.382 859.999 L 112.382 859.999 L 112.382 859.999 L 112.382 859.999 L 112.382 859.999 L 112.382 859.999 L 112.382 859.999 L 112.382 859.999 Z  M 595.393 262.382 Q 626.979 318.698 644.867 362.759 C 673.544 433.398 692.688 513.529 698.592 525.791 C 711.13 551.832 710.701 532.006 713.595 549.367 C 716.488 566.727 722.704 564.263 713.059 575.836 C 703.414 587.41 696.02 588.91 688.304 572.514 C 680.588 556.118 673.515 559.655 651.868 548.51 C 628.78 536.622 566.459 496.75 558.743 495.785 C 551.027 494.821 524.022 521.826 509.555 544.973 C 495.088 568.121 486.408 592.232 480.621 600.913 C 474.834 609.593 469.047 600.913 472.905 582.588 C 476.763 564.263 457.473 557.511 467.118 548.831 C 476.763 540.151 476.763 551.725 497.017 531.471 C 517.271 511.217 542.347 490.963 543.311 480.353 C 544.276 469.744 549.098 471.673 558.743 471.673 C 568.388 471.673 578.997 474.567 580.926 486.14 C 582.855 497.714 645.737 524.414 660.013 532.649 C 671.158 539.079 699.556 561.369 689.911 543.044 C 680.267 524.719 654.583 412.197 646.867 390.765 C 635.396 358.9 575.159 213.516 582.855 233.663 C 586.498 243.2 585.427 240.092 595.393 262.382 L 595.393 262.382 L 595.393 262.382 L 595.393 262.382 L 595.393 262.382 L 595.393 262.382 L 595.393 262.382 Z  M 555.742 709.041 Q 569.587 701.449 573.698 695.907 C 582.462 684.096 563.982 684.858 554.838 684.858 Q 530.712 686.022 544.169 687.144 C 557.457 688.251 566.592 687.857 560.172 694.002 C 557.671 696.396 555.795 699.836 544.383 706.683 C 530.988 714.721 523.622 721.211 531.202 718.793 C 534.262 717.816 535.929 716.661 555.742 709.041 L 555.742 709.041 L 555.742 709.041 L 555.742 709.041 L 555.742 709.041 L 555.742 709.041 Z  M 303.372 87.277 C 306.23 96.993 317.136 150.233 322.804 202.156 C 325.361 225.576 334.86 260.798 330.806 269.312 C 327.948 275.313 324.233 248.451 321.661 227.876 C 319.481 210.437 311.523 176.99 308.944 156.29 C 303.658 113.853 290.76 61.569 296.228 68.13 C 299.085 71.559 300.525 77.597 303.372 87.277 L 303.372 87.277 L 303.372 87.277 L 303.372 87.277 L 303.372 87.277 Z  M 384.53 89.563 C 381.485 79.338 383.387 54.985 386.531 62.986 C 391.616 75.93 398.914 116.235 405.011 160.434 C 411.107 204.633 412.631 254.167 411.869 268.646 C 411.107 283.125 410.631 285.125 415.965 297.318 C 421.3 309.511 426.856 331.403 419.68 319.322 C 412.155 306.653 410.059 295.984 399.391 287.602 C 388.722 279.219 373.147 266.21 382.911 267.883 C 386.245 268.455 396.533 273.313 397.39 261.787 C 399.146 238.179 400.438 205.395 394.342 155.1 C 388.246 104.804 387.198 98.517 384.53 89.563 L 384.53 89.563 L 384.53 89.563 L 384.53 89.563 Z  M 548.562 745.405 C 553.562 748.976 554.579 746.579 551.706 758.551 C 549.991 765.695 547.8 774.363 541.704 761.408 C 535.608 748.453 530.693 745.345 538.275 744.262 C 544.276 743.405 546.562 743.976 548.562 745.405 L 548.562 745.405 L 548.562 745.405 Z  M 422.538 343.327 C 433.969 358.568 439.296 379.313 454.163 421.437 C 461.022 440.87 483.502 511.741 474.358 526.601 C 465.213 541.461 450.734 561.655 455.306 530.792 C 459.879 499.929 443.494 421.818 439.303 398.195 C 434.295 369.967 409.345 325.737 422.538 343.327 L 422.538 343.327 Z  M 281.558 12.596 C 281.939 4.213 290.099 5.425 305.563 6.309 C 318.899 7.071 316.041 11.071 311.088 18.692 C 306.134 26.313 303.467 16.787 304.42 50.698 C 304.589 56.72 319.412 57.367 323.28 73.75 C 326.519 87.467 334.14 228.066 346.333 196.06 C 358.525 164.054 360.791 90.731 362.336 71.274 C 363.288 59.271 369.194 71.845 373.957 45.554 C 377.391 26.598 368.564 26.724 368.051 18.692 C 367.48 9.738 380.053 14.691 387.864 17.168 C 395.676 19.645 400.057 16.215 394.151 28.408 C 388.436 40.208 389.008 44.602 398.152 64.415 C 407.297 84.229 431.683 166.53 465.213 184.82 C 498.743 203.109 539.691 216.129 555.135 197.013 Q 575.568 171.722 576.854 171.079 Q 580.851 168.645 580.759 167.102 C 580.34 164.355 581.387 161.891 580.473 160.148 C 576.825 153.186 568.725 153.497 569.995 152.432 C 571.265 151.367 573.548 151.242 575.52 151.67 C 577.216 152.039 578.768 152.444 581.807 154.338 C 585.318 156.525 587.356 162.291 586.284 167.435 Q 587.763 176.629 590.142 174.937 Q 603.716 232.448 649.63 299.128 C 695.669 365.989 728.081 403.824 750.602 429.629 C 759.747 440.108 792.324 482.783 798.611 497.071 C 802.612 506.216 784.851 539.058 779.75 567.37 C 770.415 619.19 765.462 645.862 766.986 668.724 C 768.51 691.585 791.841 690.896 774.607 704.54 C 765.462 711.78 774.988 723.21 752.126 717.114 Q 729.264 711.018 734.027 708.827 Q 722.055 712.217 707.165 707.112 C 697.163 703.683 692.591 697.682 691.733 689.68 C 690.876 681.678 701.83 696.729 714.023 698.253 C 721.866 699.233 723.465 700.065 726.026 697.11 C 727.446 695.471 725.52 691.746 727.74 688.823 C 735.456 682.822 731.932 683.203 712.118 660.341 C 692.305 637.479 613.051 576.515 576.473 573.467 C 539.894 570.419 538.37 565.846 523.129 590.232 C 507.888 614.618 494.171 625.287 500.267 645.1 C 506.364 664.913 495.695 684.727 518.557 681.678 C 541.418 678.63 552.087 678.63 567.328 683.203 C 582.569 687.775 587.141 689.299 564.28 709.112 C 541.418 728.926 523.129 724.353 538.37 733.498 C 553.611 742.643 562.756 744.167 556.659 759.408 C 550.563 774.649 549.039 763.98 555.135 799.035 C 561.232 834.089 575.202 846.54 571.9 863.047 C 569.995 872.573 552.373 890.672 529.702 870.001 C 497.966 841.066 510.079 856.951 476.548 841.71 C 443.018 826.469 428.539 817.705 394.247 788.556 C 357.967 757.719 344.808 671.01 312.802 675.582 C 280.796 680.154 216.783 666.437 189.35 703.016 C 161.916 739.595 172.584 821.896 171.06 867.619 Q 169.536 913.343 174.109 919.439 Q 189.499 922.613 200.399 909.532 C 208.02 900.388 208.401 899.245 210.306 893.91 C 214.005 883.554 216.783 887.814 215.259 900.007 C 213.735 912.2 204.972 931.251 185.158 935.823 C 182.257 936.493 181.749 944.908 178.3 946.111 C 158.194 953.124 128.124 959.474 117.717 952.969 C 105.524 945.349 114.668 925.536 113.144 916.391 C 111.62 907.246 113.144 916.391 82.662 879.812 C 52.18 843.234 7.981 820.372 6.457 803.607 C 4.933 786.842 1.884 767.028 17.126 763.98 C 32.367 760.932 36.939 704.54 35.415 596.328 C 33.891 488.117 18.65 390.574 21.698 372.285 C 22.915 364.982 24.237 356.787 26.175 350.328 C 26.507 349.222 29.91 348.659 30.176 347.613 C 31.319 340.755 30.747 340.183 36.034 335.754 C 40.11 332.339 41.035 332.467 36.463 340.898 Q 35.55 345.819 34.605 350.9 Q 120.765 386.002 146.675 364.664 C 172.584 343.327 203.067 278.552 221.356 226.733 C 237.253 181.69 258.407 116.981 271.651 80.418 C 276.181 67.913 283.334 60.483 284.225 55.842 C 290.703 22.121 281.177 20.978 281.558 12.596 L 281.558 12.596 L 281.558 12.596 L 281.558 12.596 L 281.558 12.596 L 281.558 12.596 L 281.558 12.596 L 281.558 12.596 Z  M 754.317 701.968 C 759.889 701.968 762.89 700.682 762.461 693.395 C 762.033 686.108 759.032 672.391 762.89 679.249 C 766.748 686.108 775.75 691.68 772.749 693.824 C 769.748 695.967 765.891 698.968 764.176 704.111 C 762.461 709.255 765.033 712.256 758.175 709.255 C 751.316 706.255 737.171 701.968 742.315 701.968 C 747.458 701.968 748.076 701.968 754.317 701.968 Z " fill-rule="evenodd" fill="rgb(25,24,28)"/></g></svg>